Coordinates
version=1
nRows=24
nColumns=24
inDegrees=yes

Units are S.I. units (second, meters, Newtons, ...)
Angles are in degrees.

endheader
time	pelvis_tilt	pelvis_list	pelvis_rotation	pelvis_tx	pelvis_ty	pelvis_tz	hip_flexion_r	hip_adduction_r	hip_rotation_r	knee_angle_r	ankle_angle_r	subtalar_angle_r	mtp_angle_r	hip_flexion_l	hip_adduction_l	hip_rotation_l	knee_angle_l	ankle_angle_l	subtalar_angle_l	mtp_angle_l	lumbar_extension	lumbar_bending	lumbar_rotation
      1.21000000	      7.36856057	     -3.37942662	    -12.19399630	     -0.72706250	      0.97289929	      0.00211984	    -26.19126259	     -0.40877390	    -16.70411950	     -9.41793477	      9.43500368	     18.44838607	     13.62110882	     18.29200761	     -8.80058758	    -31.35048988	    -10.59644492	     -2.84999331	      2.09890972	     16.01037198	    -11.16573518	     -7.76630165	    -13.77479813
      1.21500000	      7.34513193	     -3.36695694	    -12.36347184	     -0.72029465	      0.97188395	      0.00191254	    -26.41494411	     -0.63772933	    -16.57014061	     -9.70472827	      9.35832566	     18.36762803	     13.82116978	     18.27996103	     -8.82161690	    -31.02049810	    -11.10381068	     -3.20784084	      1.69367349	     15.97136501	    -11.09404732	     -7.90076558	    -13.63715072
      1.22000000	      7.33473217	     -3.35093358	    -12.50384649	     -0.71350998	      0.97095391	      0.00163978	    -26.64760219	     -0.86414111	    -16.43748027	     -9.97892435	      9.07078911	     18.20920500	     15.46888352	     18.25370012	     -8.82771494	    -30.67029279	    -11.60562793	     -3.71313284	      1.26141469	     16.52824563	    -11.04307204	     -8.03424554	    -13.50498615
      1.22500000	      7.30276604	     -3.30893560	    -12.66910759	     -0.70672763	      0.97010421	      0.00137839	    -26.81597927	     -1.12898046	    -16.23668106	    -10.33395975	      8.95397270	     18.04938765	     15.57496926	     18.25102420	     -8.82469104	    -30.39482058	    -12.13549008	     -4.20736616	      0.81345696	     16.51391888	    -10.96126283	     -8.20017274	    -13.37980714
      1.23000000	      7.29035787	     -3.25666871	    -12.78348456	     -0.69992855	      0.96936102	      0.00102900	    -26.99633733	     -1.38645114	    -16.08168622	    -10.67725125	      8.61800215	     17.79976438	     17.03385995	     18.24094726	     -8.79579895	    -30.08521454	    -12.66715006	     -4.86940684	      0.29261327	     17.26938305	    -10.91169260	     -8.37344071	    -13.29004960
      1.23500000	      7.27050435	     -3.17651550	    -12.92714318	     -0.69312681	      0.96872139	      0.00068340	    -27.12685474	     -1.69200836	    -15.85756842	    -11.09771660	      8.41227140	     17.58241794	     17.13113378	     18.23637483	     -8.75500829	    -29.84877471	    -13.22428987	     -5.43978979	     -0.19757613	     17.22659316	    -10.84524998	     -8.58005767	    -13.17693288
      1.24000000	      7.25572720	     -3.07843538	    -13.00102695	     -0.68628225	      0.96817669	      0.00024198	    -27.25283394	     -1.98317692	    -15.70945787	    -11.51178746	      7.97544574	     17.22213221	     18.76979051	     18.25149178	     -8.68249627	    -29.56216484	    -13.80371383	     -6.12487595	     -0.76203330	     17.85322944	    -10.79187667	     -8.80100034	    -13.13702945
      1.24500000	      7.24931260	     -2.97838104	    -13.12132246	     -0.67945339	      0.96777366	     -0.00016626	    -27.34600692	     -2.30781447	    -15.44527225	    -12.00058439	      7.67135877	     16.95148910	     18.90401135	     18.24782253	     -8.62985762	    -29.36830271	    -14.41291616	     -6.70532053	     -1.27464701	     17.80649673	    -10.74236248	     -9.02635673	    -13.02840873
      1.25000000	      7.24405305	     -2.85409715	    -13.18656678	     -0.67256873	      0.96746493	     -0.00067729	    -27.42182395	     -2.63476372	    -15.24047274	    -12.49669693	      7.09465847	     16.53397902	     20.81992410	     18.25733634	     -8.53943801	    -29.14232369	    -15.03319705	     -7.33521859	     -1.80101456	     18.31214175	    -10.69823303	     -9.26873605	    -12.99459687
      1.25500000	      7.25921769	     -2.71612454	    -13.25891095	     -0.66566074	      0.96728637	     -0.00119327	    -27.47940967	     -2.98994064	    -15.00114715	    -13.07398349	      6.68291249	     16.20910222	     20.92634217	     18.23648682	     -8.43603573	    -28.95748678	    -15.66355081	     -7.86096901	     -2.26739998	     18.25305803	    -10.66941057	     -9.52940450	    -12.92363292
      1.26000000	      7.26454455	     -2.57906535	    -13.27340432	     -0.65870300	      0.96719015	     -0.00179397	    -27.51149332	     -3.31689260	    -14.81235618	    -13.65501620	      5.96299176	     15.71343809	     23.10753767	     18.24431915	     -8.32735176	    -28.75614999	    -16.33077095	     -8.37581024	     -2.73930535	     18.60646786	    -10.64105916	     -9.77583125	    -12.92444314
      1.26500000	      7.29437853	     -2.43023665	    -13.30048636	     -0.65170856	      0.96722909	     -0.00239769	    -27.52660307	     -3.67529926	    -14.58942390	    -14.32565373	      5.41154217	     15.35060986	     23.22562684	     18.20038921	     -8.19888713	    -28.59825568	    -16.97271786	     -8.80145263	     -3.14655741	     18.55166880	    -10.62914244	    -10.03645171	    -12.87622699
      1.27000000	      7.31403308	     -2.28754431	    -13.26722593	     -0.64466829	      0.96732504	     -0.00309565	    -27.51155140	     -4.00200420	    -14.42236041	    -15.00661835	      4.52933749	     14.81519009	     25.66268634	     18.17750103	     -8.06395670	    -28.41730030	    -17.63640128	     -9.16907102	     -3.51484868	     18.75087138	    -10.61984112	    -10.27189977	    -12.88575178
      1.27500000	      7.35912081	     -2.14465709	    -13.22653326	     -0.63759634	      0.96755684	     -0.00381266	    -27.48312195	     -4.33796700	    -14.22971287	    -15.78041932	      3.82014247	     14.40852068	     25.79406503	     18.09930013	     -7.91017059	    -28.25987391	    -18.25878359	     -9.47359273	     -3.85010171	     18.70399377	    -10.63690808	    -10.50940772	    -12.89187642
      1.28000000	      7.37213913	     -2.01554695	    -13.13534300	     -0.63048577	      0.96781000	     -0.00459538	    -27.39359831	     -4.63624752	    -14.09159690	    -16.58008091	      2.78821252	     13.86461111	     28.30918993	     18.05624780	     -7.76365889	    -28.08528226	    -18.89433420	     -9.68156376	     -4.10163789	     18.75261084	    -10.62567702	    -10.71031916	    -12.93204051
      1.28500000	      7.42054758	     -1.89047865	    -13.02488690	     -0.62333920	      0.96820228	     -0.00543327	    -27.30340086	     -4.93796312	    -13.96323216	    -17.45108059	      1.78253299	     13.36052900	     29.67983786	     17.94613189	     -7.59263055	    -27.94207384	    -19.48272268	     -9.80963982	     -4.33426834	     18.71118936	    -10.65865320	    -10.90279386	    -12.97825319
      1.29000000	      7.48692642	     -1.77621973	    -12.87299862	     -0.61618380	      0.96870901	     -0.00631364	    -27.19837566	     -5.21746049	    -13.82987203	    -18.39329802	      0.80437341	     12.91869451	     29.81586653	     17.78564845	     -7.39924547	    -27.75612193	    -20.00189537	     -9.90189011	     -4.52879421	     18.67860631	    -10.72011292	    -11.08180705	    -13.06252568
      1.29500000	      7.49479821	     -1.67319347	    -12.70454945	     -0.60902824	      0.96919794	     -0.00724018	    -26.97909240	     -5.47685537	    -13.71042107	    -19.39356845	     -0.45386219	     12.33923697	     32.28406532	     17.67570848	     -7.21981659	    -27.57732663	    -20.51746267	     -9.85999993	     -4.63933828	     18.51370436	    -10.72090866	    -11.22062482	    -13.14322095
      1.30000000	      7.58015524	     -1.59320187	    -12.47294438	     -0.60184444	      0.96988507	     -0.00824639	    -26.82252672	     -5.70612272	    -13.65032260	    -20.44885835	     -1.61253139	     11.89852180	     32.36558449	     17.45249730	     -7.01236521	    -27.37769757	    -20.96291740	     -9.81710572	     -4.75136607	     18.49060320	    -10.82436799	    -11.33888616	    -13.28835562
      1.30500000	      7.59642300	     -1.52017389	    -12.24538997	     -0.59470497	      0.97055036	     -0.00925894	    -26.52570378	     -5.92158351	    -13.54376395	    -21.57444283	     -3.00164593	     11.28510046	     34.50419570	     17.28100210	     -6.81831374	    -27.17487230	    -21.38328990	     -9.64267270	     -4.79119169	     18.17711013	    -10.85318475	    -11.42597851	    -13.40514708
      1.31000000	      7.66652631	     -1.46971595	    -11.95000417	     -0.58753754	      0.97137507	     -0.01035078	    -26.26663322	     -6.10111120	    -13.50682516	    -22.75033219	     -4.30714604	     10.83652176	     34.52047344	     17.02697844	     -6.60361431	    -26.93554198	    -21.74024495	     -9.49097604	     -4.84925429	     18.15434843	    -10.95659831	    -11.48914760	    -13.60688830
      1.31500000	      7.68228939	     -1.42384806	    -11.67163837	     -0.58043113	      0.97219360	     -0.01142734	    -25.88094615	     -6.27356380	    -13.39596444	    -23.99691914	     -5.75392969	     10.21655113	     35.97198156	     16.80650403	     -6.40111761	    -26.70269856	    -22.06847077	     -9.20045115	     -4.81532274	     17.67017976	    -10.99928184	    -11.53156920	    -13.77547693
      1.32000000	      7.75182110	     -1.39975976	    -11.32739421	     -0.57332632	      0.97314931	     -0.01259633	    -25.53374530	     -6.41112287	    -13.34066469	    -25.27623045	     -7.15241850	      9.75906442	     35.92121158	     16.50887158	     -6.17870810	    -26.41203082	    -22.33798619	     -8.95676299	     -4.84633799	     17.63246094	    -11.12122213	    -11.54750462	    -14.02905838
      1.32500000	      7.79277352	     -1.39222240	    -10.98315045	     -0.56626995	      0.97413859	     -0.01374763	    -25.09898505	     -6.52289711	    -13.24505465	    -26.61694356	     -8.56548695	      9.23566969	     35.89131541	     16.21957640	     -5.97666263	    -26.12602286	    -22.57523071	     -8.67910729	     -4.83671348	     17.55005694	    -11.21406449	    -11.53632867	    -14.27863351
